<?xml version="1.0" encoding="UTF-8" standalone="no"?>
<!DOCTYPE svg PUBLIC "-//W3C//DTD SVG 1.1//EN" "http://www.w3.org/Graphics/SVG/1.1/DTD/svg11.dtd">
<svg width="100%" height="100%" viewBox="0 0 276 240" version="1.1" xmlns="http://www.w3.org/2000/svg" xmlns:xlink="http://www.w3.org/1999/xlink" xml:space="preserve" xmlns:serif="http://www.serif.com/" style="fill-rule:evenodd;clip-rule:evenodd;stroke-linejoin:round;stroke-miterlimit:2;">
    <g>
        <clipPath id="_clip1">
            <path d="M84.3,17.2C82.6,18.5 79.4,22.4 77.2,26C69.6,38.3 30.5,105.5 29.4,108C27.9,111.5 27.7,120.1 28.9,124.8C29.9,128.5 40,143.3 57,166.2C66.4,178.8 81.8,199.8 85.4,204.8C87.1,207.2 90,211 91.9,213.1L98.2,214L171.1,217C245.4,217 241,213 241,211.1C241,205.8 244.6,196.7 242.3,189.9C238.7,178.7 233.7,171.7 211,145.5C199.7,132.4 190.4,121.5 190.2,121.1C190.1,120.8 198.4,110.8 208.6,99C231.3,72.8 235.4,67.5 239.5,58.5C244,48.8 246,40.1 246.7,26.6L237.3,21L87.5,15L84.3,17.2Z"/>
        </clipPath>
        <g clip-path="url(#_clip1)">
            <rect x="0" y="0" width="276" height="240" style="fill:white;"/>
        </g>
    </g>
    <g transform="matrix(0.1,0,0,-0.1,0,240)">
        <path d="M875,2250L2417.884,2250C2436.256,2250 2454.115,2245.812 2463,2240C2471.885,2234.188 2471.196,2195.13 2471.196,2195.13L2467,2134C2460,1999 2440,1912 2395,1815C2354,1725 2313,1672 2086,1410C1984,1292 1901,1192 1902,1189C1904,1185 1997,1076 2110,945C2337,683 2387,613 2423,501C2446,433 2450,312 2450,259C2450,240 2454,230 1711,230C1711,230 1134.123,226.885 1002,230C944.445,231.357 919,269 919,269C900,290 871,328 854,352C818,402 664,612 570,738C400,967 299,1115 289,1152C277,1199 279,1285 294,1320C305,1345 696,2017 772,2140C785.293,2161.752 800.125,2197.376 825.615,2222.168C842.312,2238.408 875,2250 875,2250ZM1004,2133C969,2159 920,2165 893,2146C882,2137 820,2041 756,1933C692,1824 635,1728 630,1720C571,1622 402,1325 387,1291C359,1228 367,1164 411,1100C509,957 935,377 953,365C965,358 997,318 1013,315C1038,308 1060,310 1060,337C1060,393 1099,521 1141,601C1182,680 1203,706 1450,990C1584,1143 1600,1166 1600,1200C1600,1213 1528,1305 1408,1443C1302,1565 1198,1691 1177,1722C1127,1797 1092,1886 1070,1991C1051,2084 1041,2106 1004,2133ZM988.824,926.815C1050.502,942.142 1116.787,889.357 1136.753,809.014C1156.719,728.67 1122.854,650.998 1061.176,635.67C999.498,620.343 933.213,673.127 913.247,753.471C893.281,833.815 927.146,911.487 988.824,926.815ZM958.824,1396.815C1020.502,1412.142 1086.787,1359.357 1106.753,1279.014C1126.719,1198.67 1092.854,1120.998 1031.176,1105.67C969.498,1090.343 903.213,1143.127 883.247,1223.471C863.281,1303.815 897.146,1381.487 958.824,1396.815ZM918.824,1856.815C980.502,1872.142 1046.787,1819.357 1066.753,1739.014C1086.719,1658.67 1052.854,1580.998 991.176,1565.67C929.498,1550.343 863.213,1603.127 843.247,1683.471C823.281,1763.815 857.146,1841.487 918.824,1856.815ZM618.824,1346.815C680.502,1362.142 746.787,1309.357 766.753,1229.014C786.719,1148.67 752.854,1070.998 691.176,1055.67C629.498,1040.343 563.213,1093.127 543.247,1173.471C523.281,1253.815 557.146,1331.487 618.824,1346.815ZM1288.824,1436.815C1350.502,1452.142 1416.787,1399.357 1436.753,1319.014C1456.719,1238.67 1422.854,1160.998 1361.176,1145.67C1299.498,1130.343 1233.213,1183.127 1213.247,1263.471C1193.281,1343.815 1227.146,1421.487 1288.824,1436.815Z" style="fill:url(#_Linear2);stroke:black;stroke-width:8.5px;"/>
    </g>
    <defs>
        <linearGradient id="_Linear2" x1="0" y1="0" x2="1" y2="0" gradientUnits="userSpaceOnUse" gradientTransform="matrix(600,-1220,-1220,-600,1290,2040)"><stop offset="0" style="stop-color:rgb(33,57,140);stop-opacity:1"/><stop offset="1" style="stop-color:rgb(150,25,89);stop-opacity:1"/></linearGradient>
    </defs>
</svg>
