<?xml version="1.0" encoding="UTF-8" standalone="no"?>
<!DOCTYPE svg PUBLIC "-//W3C//DTD SVG 1.1//EN" "http://www.w3.org/Graphics/SVG/1.1/DTD/svg11.dtd">
<svg width="100%" height="100%" viewBox="0 0 276 240" version="1.1" xmlns="http://www.w3.org/2000/svg" xmlns:xlink="http://www.w3.org/1999/xlink" xml:space="preserve" xmlns:serif="http://www.serif.com/" style="fill-rule:evenodd;clip-rule:evenodd;stroke-linejoin:round;stroke-miterlimit:2;">
    <g>
        <g>
            <clipPath id="_clip1">
                <path d="M84.3,17.2C82.6,18.5 79.4,22.4 77.2,26C69.6,38.3 30.5,105.5 29.4,108C27.9,111.5 27.7,120.1 28.9,124.8C29.9,128.5 40,143.3 57,166.2C66.4,178.8 81.8,199.8 85.4,204.8C87.1,207.2 90,211 91.9,213.1L98.2,214L171.1,217C245.4,217 241,213 241,211.1C241,205.8 244.6,196.7 242.3,189.9C238.7,178.7 233.7,171.7 211,145.5C199.7,132.4 190.4,121.5 190.2,121.1C190.1,120.8 198.4,110.8 208.6,99C231.3,72.8 235.4,67.5 239.5,58.5C244,48.8 246,40.1 246.7,26.6L237.3,21L87.5,15L84.3,17.2Z"/>
            </clipPath>
            <g clip-path="url(#_clip1)">
                <path d="M90.558,15L241.788,15C243.626,15 245.411,15.419 246.3,16C247.188,16.581 247.12,20.487 247.12,20.487L246.7,26.6C246,40.1 244,48.8 239.5,58.5C235.4,67.5 231.3,72.8 208.6,99C198.4,110.8 190.1,120.8 190.2,121.1C190.4,121.5 199.7,132.4 211,145.5C233.7,171.7 238.7,178.7 242.3,189.9C244.6,196.7 245,208.8 245,214.1C245,216 245.4,217 171.1,217C171.1,217 131.302,217.215 110.247,217.109C107.28,217.094 104.684,217.073 102.625,217.044L102.562,217.241C102.411,217.23 102.21,217.595 100.961,217.016C100.693,217.011 100.439,217.006 100.2,217C94.445,216.864 91.9,213.1 91.9,213.1C90,211 87.1,207.2 85.4,204.8C83.282,201.858 77.079,193.377 70.416,184.327C65.755,177.996 60.869,171.386 57,166.2C40,143.3 29.9,128.5 28.9,124.8C27.7,120.1 27.9,111.5 29.4,108C30.199,106.184 51.053,70.222 65.315,45.969C70.685,36.837 75.121,29.364 77.2,26C78.529,23.825 80.012,20.262 82.561,17.783C84.231,16.159 87.5,15 87.5,15L90.086,15C90.156,14.972 90.227,14.945 90.298,14.918L90.558,15Z" style="fill:white;"/>
            </g>
        </g>
    </g>
    <g transform="matrix(0.1,0,0,-0.1,0,240)">
        <path d="M875,2250L2417.884,2250C2436.256,2250 2454.115,2245.812 2463,2240C2471.885,2234.188 2471.196,2195.13 2471.196,2195.13L2467,2134C2460,1999 2440,1912 2395,1815C2354,1725 2313,1672 2086,1410C1984,1292 1901,1192 1902,1189C1904,1185 1997,1076 2110,945C2337,683 2387,613 2423,501C2446,433 2450,312 2450,259C2450,240 2454,230 1711,230C1711,230 1134.123,226.885 1002,230C944.445,231.357 919,269 919,269C900,290 871,328 854,352C818,402 664,612 570,738C400,967 299,1115 289,1152C277,1199 279,1285 294,1320C305,1345 696,2017 772,2140C785.293,2161.752 800.125,2197.376 825.615,2222.168C842.312,2238.408 875,2250 875,2250Z" style="fill:url(#_Linear2);"/>
        <g transform="matrix(10.235161,0,0,-10.235161,110.368523,2340.476073)">
            <path d="M53.031,39.097C58.278,30.175 62.612,22.874 64.643,19.587C65.942,17.462 67.391,13.981 69.881,11.559C71.513,9.972 74.706,8.84 74.706,8.84L77.233,8.84C72.724,10.634 69.293,14.871 53.031,39.097ZM87.858,206.215C87.597,206.209 87.348,206.204 87.115,206.199C81.491,206.066 79.005,202.388 79.005,202.388C77.149,200.336 74.316,196.624 72.655,194.279C70.585,191.405 64.524,183.119 58.015,174.277C70.882,189.444 82.065,202.223 84.741,204.22C86.201,205.31 87.186,205.903 87.858,206.215Z" style="fill:white;fill-opacity:0.01;"/>
            <path d="M77.694,8.84L92.61,8.84C93.12,9.432 93.634,10.075 94.153,10.773C98.849,17.089 96.171,36.959 117.648,58.355C119.973,60.67 119.6,60.981 146.214,87.784C147.411,88.99 147.091,89.269 160.647,103.362C171.138,114.269 165.36,118.179 139.684,143.683C137.717,145.637 138.207,146.06 115.658,168.653C105.814,178.517 97.616,198.882 96.931,206.305C94.032,206.291 91.496,206.27 89.484,206.242C90.53,202.875 90.571,196.969 95.117,187.322C105.961,164.31 108.006,165.563 150.83,121.825C158.204,114.293 158.555,112.63 156.422,110.574C154.793,109.004 155.168,108.685 136.827,90.176C135.949,89.29 136.298,88.997 126.397,78.594C119.901,71.769 117.163,70.506 110.778,62.31C107.821,58.515 104.637,57.278 98.879,46.277C97.845,44.301 97.953,44.331 96.838,42.365C96.685,42.095 96.612,41.785 96.46,41.516L95.852,40.295C94.905,37.232 94.862,37.323 93.479,34.506L92.827,32.324C89.319,16.464 86.621,13.769 85.428,12.576C83.342,10.493 80.25,9.645 77.694,8.84Z" style="fill:white;fill-opacity:0.97;"/>
        </g>
        <g transform="matrix(0.997304,-0.073377,0.073377,0.997304,-138.776718,46.002713)">
            <path d="M988.824,926.815C1050.502,942.142 1116.787,889.357 1136.753,809.014C1156.719,728.67 1122.854,650.998 1061.176,635.67C999.498,620.343 933.213,673.127 913.247,753.471C893.281,833.815 927.146,911.487 988.824,926.815Z" style="fill:white;stroke:white;stroke-width:35px;"/>
        </g>
        <g transform="matrix(0.997304,-0.073377,0.073377,0.997304,-138.776718,46.002713)">
            <path d="M958.824,1396.815C1020.502,1412.142 1086.787,1359.357 1106.753,1279.014C1126.719,1198.67 1092.854,1120.998 1031.176,1105.67C969.498,1090.343 903.213,1143.127 883.247,1223.471C863.281,1303.815 897.146,1381.487 958.824,1396.815Z" style="fill:white;stroke:white;stroke-width:35px;"/>
        </g>
        <g transform="matrix(0.997304,-0.073377,0.073377,0.997304,-138.776718,46.002713)">
            <path d="M918.824,1856.815C980.502,1872.142 1046.787,1819.357 1066.753,1739.014C1086.719,1658.67 1052.854,1580.998 991.176,1565.67C929.498,1550.343 863.213,1603.127 843.247,1683.471C823.281,1763.815 857.146,1841.487 918.824,1856.815Z" style="fill:white;stroke:white;stroke-width:35px;"/>
        </g>
        <g transform="matrix(0.997304,-0.073377,0.073377,0.997304,-138.776718,46.002713)">
            <path d="M618.824,1346.815C680.502,1362.142 746.787,1309.357 766.753,1229.014C786.719,1148.67 752.854,1070.998 691.176,1055.67C629.498,1040.343 563.213,1093.127 543.247,1173.471C523.281,1253.815 557.146,1331.487 618.824,1346.815Z" style="fill:white;stroke:white;stroke-width:35px;"/>
        </g>
        <g transform="matrix(0.997304,-0.073377,0.073377,0.997304,-138.776718,46.002713)">
            <path d="M1288.824,1436.815C1350.502,1452.142 1416.787,1399.357 1436.753,1319.014C1456.719,1238.67 1422.854,1160.998 1361.176,1145.67C1299.498,1130.343 1233.213,1183.127 1213.247,1263.471C1193.281,1343.815 1227.146,1421.487 1288.824,1436.815Z" style="fill:white;stroke:white;stroke-width:35px;"/>
        </g>
    </g>
    <defs>
        <linearGradient id="_Linear2" x1="0" y1="0" x2="1" y2="0" gradientUnits="userSpaceOnUse" gradientTransform="matrix(470,-790,790,470,1150,2140)"><stop offset="0" style="stop-color:rgb(33,57,140);stop-opacity:1"/><stop offset="1" style="stop-color:rgb(150,25,89);stop-opacity:1"/></linearGradient>
    </defs>
</svg>
