<svg version="1.0" xmlns="http://www.w3.org/2000/svg" viewBox="0 0 542 380">
    <g transform="translate(0,380) scale(0.05,-0.05)" fill="#667eea" stroke="none">
        <path d="M3050 7198 c-136 -11 -299 -51 -340 -82 -11 -9 -66 -51 -123 -95 -57 -44 -126 -109 -154 -145 -72 -95 -1702 -2878 -1693 -2891 1 -3 -8 -54 -21 -113 -69 -307 -14 -491 287 -962 105 -165 234 -367 286 -450 52 -82 140 -221 196 -308 106 -165 286 -452 612 -976 453 -727 470 -732 2270 -770 832 -18 732 -18 3615 -11 l2115 5 0 337 c0 887 -103 1094 -1127 2250 -342 388 -634 719 -648 736 -22 27 71 140 638 779 1014 1144 1113 1336 1132 2213 l9 425 -2817 1 c-1549 1 -2848 5 -2885 8 -38 4 -213 13 -390 21 -177 7 -434 20 -572 27 -137 7 -313 8 -390 1z m850 -288 c580 -31 1347 -70 1600 -81 475 -21 643 -72 821 -250 97 -97 1479 -2168 1479 -2217 0 -110 -41 -114 -850 -72 -99 5 -310 14 -470 20 -159 6 -357 15 -440 20 -82 5 -294 14 -470 21 -733 26 -619 -91 -2064 2126 -277 424 -273 476 32 455 95 -6 258 -16 362 -22z m-939 -144 c36 -21 171 -207 363 -500 168 -256 480 -729 693 -1051 490 -742 513 -788 513 -1025 -1 -228 -135 -495 -830 -1650 -141 -235 -660 -1122 -660 -1129 0 -5 -27 -49 -60 -98 -33 -49 -60 -98 -60 -109 0 -31 -135 -142 -191 -156 -195 -49 -206 -37 -824 942 -285 451 -593 937 -684 1080 -388 607 -391 583 212 1614 191 326 347 602 347 613 0 11 7 23 15 26 21 9 185 288 185 314 0 11 8 23 17 26 9 4 29 31 45 61 155 298 597 1008 648 1039 75 46 196 48 271 3z m3348 -2716 c55 -5 335 -18 621 -29 835 -34 847 -35 916 -104 105 -105 90 -142 -383 -951 -233 -397 -423 -731 -423 -742 0 -12 -8 -24 -17 -27 -14 -6 -101 -148 -233 -382 -443 -782 -614 -1025 -786 -1109 l-114 -56 -500 5 c-963 9 -2151 47 -2200 69 -161 73 -139 191 121 636 106 182 269 461 362 620 93 160 177 304 187 320 10 17 168 287 352 600 731 1245 658 1188 1477 1170 285 -7 564 -16 620 -20z"/>
        <path d="M5422 6349 c-213 -180 167 -609 540 -609 502 0 179 618 -342 655 -121 9 -136 6 -198 -46z"/>
        <path d="M4985 5499 c-252 -167 123 -607 518 -608 239 -1 312 97 220 299 -114 250 -551 433 -738 309z"/>
        <path d="M2670 5828 c-347 -180 -300 -871 60 -871 214 0 351 169 365 453 17 333 -193 540 -425 418z"/>
        <path d="M3629 4612 c-88 -38 -201 -179 -227 -282 -115 -458 219 -774 511 -482 309 309 81 923 -284 764z"/>
        <path d="M2637 4381 c-326 -178 -274 -861 65 -861 225 0 382 196 384 479 2 319 -219 507 -449 382z"/>
        <path d="M1742 4186 c-26 -5 -89 -51 -140 -103 -299 -300 -125 -900 227 -783 444 146 363 972 -87 886z"/>
        <path d="M2624 2926 c-334 -164 -276 -866 72 -866 257 0 445 341 356 647 -65 223 -239 313 -428 219z"/>
        <path d="M5525 2721 c-306 -110 -485 -408 -374 -624 88 -169 396 -141 608 55 352 324 189 721 -234 569z"/>
    </g>
</svg>
